<svg width="200" height="200" viewBox="0 0 200 200" fill="none" xmlns="http://www.w3.org/2000/svg">
  <defs>
    <filter id="dry-brush" x="-25%" y="-25%" width="150%" height="150%">
      <feTurbulence type="fractalNoise" baseFrequency="0.04 0.08" numOctaves="3" result="noise"/>
      <feDisplacementMap in="SourceGraphic" in2="noise" scale="5" xChannelSelector="R" yChannelSelector="G"/>
    </filter>
  </defs>

  <g filter="url(#dry-brush)">
    <path fill="#1652F0" d="M 145 35
      C 175 55, 195 100, 180 140
      C 160 185, 100 200, 50 180
      C 10 155, 5 90, 30 50
      C 55 20, 100 5, 145 35
      Z
      M 130 55
      C 100 35, 70 50, 55 75
      C 40 105, 45 150, 75 165
      C 110 180, 150 160, 160 130
      C 170 100, 155 70, 130 55
      Z"/>
  </g>

  <g transform="translate(100 100) matrix(0.95, -0.2, 0.2, 1, 0, 0) scale(0.9)" fill="#FFFFFF" filter="url(#dry-brush)">
    
    <path d="M -10 -5 C -12 -15, 10 -12, 8 2 C 5 15, -15 10, -10 -5 Z"/>

    <path d="M -5 -73 C -8 -78, 8 -78, 5 -73 L 3 -28 C 2 -23, -2 -23, -3 -28 Z"/>
    
    <g transform="rotate(62)">
       <path d="M -4 -71 C -7 -75, 7 -75, 4 -71 L 2 -28 C 1 -25, -1 -25, -2 -28 Z"/>
    </g>
    
    <g transform="rotate(120)">
       <path d="M -6 -73 C -9 -78, 9 -78, 6 -73 L 4 -25 C 2 -21, -2 -21, -4 -25 Z"/>
    </g>
    
    <g transform="rotate(180)">
       <path d="M -5 -78 C -8 -83, 8 -83, 5 -78 L 2 -31 C 1 -27, -1 -27, -2 -31 Z"/>
    </g>
    
    <g transform="rotate(240)">
       <path d="M -6 -68 C -9 -71, 9 -71, 6 -68 L 3 -27 C 2 -23, -2 -23, -3 -27 Z"/>
    </g>
    
    <g transform="rotate(300)">
       <path d="M -4 -73 C -7 -76, 7 -76, 4 -73 L 2 -29 C 1 -25, -1 -25, -2 -29 Z"/>
    </g>
  </g>
</svg>